<?xml version="1.0" encoding="utf-8"?>
<!-- Generator: Adobe Illustrator 18.1.1, SVG Export Plug-In . SVG Version: 6.00 Build 0)  -->
<!DOCTYPE svg PUBLIC "-//W3C//DTD SVG 1.1//EN" "http://www.w3.org/Graphics/SVG/1.1/DTD/svg11.dtd">
<svg version="1.1" id="logo" xmlns="http://www.w3.org/2000/svg" xmlns:xlink="http://www.w3.org/1999/xlink" x="0px" y="0px"
	 viewBox="0.6 348.7 99.6 32" enable-background="new 0.6 348.7 99.6 32" xml:space="preserve">
<g>
	<path fill="#231F20" d="M2.3,363.7H0.6v-14.7h4.1c1.5,0,2.4,0.3,3.1,0.9s1,1.7,1,2.9c0,1.9-0.7,3-2.3,3.5c0.9,0.2,1.4,0.5,1.7,0.9
		c0.4,0.5,0.6,1.4,0.6,2.4v1.6c0,1.1,0.2,1.8,0.7,2.5H7.4C7.1,362.8,7,362,7,361.2v-1.4c0-2.2-0.7-2.9-2.8-2.9H2.3V363.7z
		 M4.6,355.6c1.6,0,2.4-0.9,2.4-2.7c0-1.8-0.8-2.6-2.4-2.6H2.3v5.3H4.6z"/>
	<path fill="#231F20" d="M12.5,358.3c0,3,0.7,4.3,2.1,4.3c1.2,0,1.8-0.9,1.9-2.6h1.4c-0.1,2.4-1.4,3.9-3.4,3.9
		c-2.5,0-3.7-1.8-3.7-5.8c0-1.8,0.3-3,0.8-4c0.6-1,1.6-1.5,2.8-1.5c2.2,0,3.6,1.8,3.6,5c0,0.1,0,0.4,0,0.7L12.5,358.3L12.5,358.3z
		 M16.4,357.1c0-2.1-0.7-3.2-1.9-3.2s-2,1.1-2,3.2H16.4z"/>
	<path fill="#231F20" d="M26.9,352.8v9.9c0,1.8-0.1,2.5-0.6,3.2c-0.6,0.9-1.7,1.4-3.2,1.4c-2.1,0-3.1-0.8-3.3-2.5h1.5
		c0.2,0.9,0.7,1.4,1.8,1.4c1.7,0,2.2-0.7,2.2-2.9v-0.5c-0.7,0.8-1.4,1.2-2.4,1.2c-1,0-1.9-0.4-2.4-1.1c-0.7-0.9-1-2.2-1-4.4
		c0-2.3,0.4-3.7,1.1-4.7c0.5-0.7,1.4-1.1,2.3-1.1c1.1,0,1.8,0.4,2.5,1.4v-1.2L26.9,352.8C26.9,352.7,26.9,352.8,26.9,352.8z
		 M21.7,354.8c-0.4,0.7-0.5,1.7-0.5,3.3c0,1.6,0.2,2.6,0.5,3.3c0.3,0.6,0.9,1,1.6,1c0.7,0,1.3-0.4,1.6-1c0.4-0.7,0.5-1.7,0.5-3.3
		c0-1.7-0.2-2.7-0.5-3.4c-0.3-0.6-0.9-1-1.6-1C22.6,353.8,22,354.2,21.7,354.8z"/>
	<path fill="#231F20" d="M29,355.8c0-2.2,1.1-3.2,3.4-3.2c1.1,0,2,0.3,2.5,0.8c0.6,0.5,0.8,1.2,0.8,2.5v5.1c0,1.5,0.1,1.7,0.7,1.7
		c0.1,0,0.1,0,0.3,0v1.1c-0.3,0-0.4,0.1-0.7,0.1c-1,0-1.6-0.5-1.8-1.4c-0.7,1.1-1.6,1.6-2.8,1.6c-1.7,0-2.9-1.2-2.9-3
		c0-1.1,0.4-1.9,1.1-2.4c0.5-0.4,1-0.6,2.5-0.9c1.8-0.4,2-0.7,2-1.7c0-1.4-0.6-2-1.9-2c-1.4,0-1.9,0.5-1.9,1.9L29,355.8L29,355.8
		L29,355.8z M34.3,358c-0.5,0.2-0.7,0.4-1.5,0.6c-1.2,0.4-1.4,0.4-1.8,0.7c-0.4,0.4-0.7,0.8-0.7,1.5c0,1.2,0.6,1.8,1.6,1.8
		c0.7,0,1.4-0.4,1.8-1c0.4-0.6,0.5-1.1,0.5-2.4C34.3,359.3,34.3,358,34.3,358z"/>
	<path fill="#231F20" d="M40,352.8v1.2c0.7-1,1.5-1.4,2.7-1.4c0.9,0,1.6,0.3,2.1,0.9c0.5,0.6,0.7,1.2,0.7,2.8v7.4h-1.6v-7.1
		c0-1.4-0.1-1.8-0.4-2.1c-0.3-0.4-0.7-0.6-1.2-0.6c-0.7,0-1.3,0.3-1.6,0.8c-0.4,0.5-0.5,1.1-0.5,2.2v6.8h-1.6v-10.9L40,352.8
		L40,352.8L40,352.8z"/>
	<path fill="#231F20" d="M58.6,363.7l-4.1-10c-0.4-1-0.7-1.9-1-2.7c0.1,1,0.2,2.1,0.2,3v9.7H52v-14.7h2.3l3.9,9.7
		c0.7,1.6,0.8,2.1,1.1,2.9c-0.1-1.3-0.1-2.2-0.1-3.3v-9.3h1.6v14.7L58.6,363.7L58.6,363.7z"/>
	<path fill="#231F20" d="M70.4,358.3c0,3.6-1.3,5.6-3.7,5.6c-2.5,0-3.7-1.9-3.7-5.7c0-3.8,1.3-5.7,3.7-5.7
		C69.1,352.5,70.4,354.4,70.4,358.3z M64.5,358.2c0,3.1,0.6,4.3,2.1,4.3c1.4,0,2.1-1.3,2.1-4.3c0-3.2-0.6-4.4-2.1-4.4
		C65.2,353.8,64.5,355.1,64.5,358.2z"/>
	<path fill="#231F20" d="M74,352.8v1.3c0.8-1.1,1.5-1.5,2.9-1.5v1.7c-0.3,0-0.4,0-0.6,0c-1.6,0-2.3,0.8-2.3,3v6.4h-1.6v-10.9
		L74,352.8C74,352.7,74,352.8,74,352.8z"/>
	<path fill="#231F20" d="M82.6,354h-1.7v6.5c0,1.1,0,1.4,0.3,1.6c0.2,0.2,0.5,0.3,0.8,0.3c0.1,0,0.3,0,0.7,0v1.3c-0.4,0-0.7,0-1,0
		c-1,0-1.5-0.2-1.9-0.5c-0.4-0.4-0.5-1-0.5-2.5V354h-1.4v-1.2h1.4v-2.9h1.6v2.9h1.7L82.6,354L82.6,354L82.6,354z"/>
	<path fill="#231F20" d="M91,358.3c0,3.6-1.3,5.6-3.7,5.6c-2.5,0-3.7-1.9-3.7-5.7c0-3.8,1.3-5.7,3.7-5.7
		C89.7,352.5,91,354.4,91,358.3z M85.1,358.2c0,3.1,0.6,4.3,2.1,4.3c1.4,0,2.1-1.3,2.1-4.3c0-3.2-0.6-4.4-2.1-4.4
		C85.8,353.8,85.1,355.1,85.1,358.2z"/>
	<path fill="#231F20" d="M94.4,352.8v1.2c0.7-1,1.5-1.4,2.7-1.4c0.9,0,1.6,0.3,2.1,0.9c0.5,0.6,0.7,1.2,0.7,2.8v7.4h-1.6v-7.1
		c0-1.4-0.1-1.8-0.4-2.1c-0.3-0.4-0.7-0.6-1.2-0.6c-0.7,0-1.3,0.3-1.6,0.8c-0.4,0.5-0.5,1.1-0.5,2.2v6.8H93v-10.9L94.4,352.8
		L94.4,352.8L94.4,352.8z"/>
</g>
<g>
	<path fill="#231F20" d="M6.8,370v7c0,1.3-0.2,2-0.6,2.5c-0.5,0.7-1.4,1.1-2.5,1.1c-1,0-2-0.4-2.5-1.1c-0.4-0.6-0.6-1.3-0.6-2.5v-7
		H2v7.1c0,1.1,0.1,1.6,0.4,2c0.3,0.3,0.8,0.6,1.3,0.6c0.6,0,1.1-0.2,1.3-0.6c0.3-0.4,0.4-0.8,0.4-2V370C5.5,370,6.8,370,6.8,370z"/>
	<path fill="#231F20" d="M15.3,380.5h-1.5l-2.2-4.3l-2.3,4.3H7.9l3-5.4L8,370h1.4l2.1,4l2.1-4h1.4l-2.8,5.1L15.3,380.5z"/>
	<path fill="#231F20" d="M24.7,375.6h-2.5v2.5h-0.9v-2.5H19v-0.8h2.5v-2.5h0.9v2.5h2.5L24.7,375.6L24.7,375.6z"/>
	<path fill="#231F20" d="M35.3,370v7c0,1.3-0.2,2-0.6,2.5c-0.5,0.7-1.4,1.1-2.5,1.1c-1,0-2-0.4-2.5-1.1c-0.4-0.6-0.6-1.3-0.6-2.5v-7
		h1.2v7.1c0,1.1,0.1,1.6,0.4,2c0.3,0.3,0.8,0.6,1.3,0.6c0.6,0,1.1-0.2,1.3-0.6c0.3-0.4,0.4-0.8,0.4-2V370
		C34.1,370,35.3,370,35.3,370z"/>
	<path fill="#231F20" d="M38.5,380.5h-1.2V370h1.2V380.5z"/>
	<path fill="#231F20" d="M43.4,370H46c1.7,0,2.4,0.3,3,1.1c0.6,0.8,0.8,2.3,0.8,4.1c0,2.1-0.4,3.7-1.2,4.5c-0.6,0.6-1.3,0.8-2.6,0.8
		h-2.6L43.4,370L43.4,370z M45.8,379.5c1.3,0,1.8-0.2,2.2-0.8c0.4-0.6,0.6-2,0.6-3.5c0-1.6-0.3-3.1-0.7-3.6
		c-0.4-0.4-0.8-0.6-1.7-0.6h-1.4v8.5L45.8,379.5C45.8,379.5,45.8,379.5,45.8,379.5z"/>
	<path fill="#231F20" d="M57.1,371.1h-4.4v3.4H57v1.1h-4.2v3.9h4.5v1.1h-5.8V370h5.6L57.1,371.1L57.1,371.1z"/>
	<path fill="#231F20" d="M63.3,372.8c-0.1-1.4-0.6-2-1.8-2c-1.1,0-1.8,0.7-1.8,1.7c0,0.9,0.4,1.4,1.5,1.8l1.5,0.5
		c0.9,0.3,1.3,0.6,1.7,1.1c0.3,0.5,0.5,1.1,0.5,1.8c0,1.9-1.2,3-3.2,3c-1.6,0-2.7-0.7-3-2c-0.1-0.5-0.2-0.7-0.2-1.5h1.3v0.4
		c0,1.4,0.7,2.1,2,2.1c1.3,0,2-0.7,2-1.9c0-1-0.3-1.4-1.6-1.9l-1.2-0.4c-1.7-0.6-2.2-1.3-2.2-2.8c0-1.8,1.2-2.9,3-2.9
		c1.2,0,2.1,0.5,2.6,1.3c0.2,0.4,0.3,0.9,0.3,1.7L63.3,372.8L63.3,372.8L63.3,372.8z"/>
	<path fill="#231F20" d="M67.6,380.5h-1.2V370h1.2V380.5z"/>
	<path fill="#231F20" d="M75.9,375.1v5.4h-0.9c-0.1-0.5-0.1-0.5-0.1-1c-0.6,0.8-1.2,1.2-2.2,1.2c-1.2,0-2.1-0.5-2.6-1.5
		c-0.4-0.8-0.7-2.2-0.7-4c0-2,0.3-3.3,0.8-4.1c0.6-0.8,1.5-1.2,2.6-1.2c1.9,0,2.9,1.1,3,3.3h-1.2c-0.1-1.5-0.7-2.3-1.8-2.3
		c-0.8,0-1.4,0.4-1.8,1.3c-0.3,0.6-0.4,1.7-0.4,3.1c0,3.1,0.7,4.5,2.2,4.5c0.8,0,1.4-0.5,1.7-1.4c0.1-0.5,0.2-1.1,0.2-2.1h-2.2v-1.1
		L75.9,375.1C75.9,375.1,75.9,375.1,75.9,375.1z"/>
	<path fill="#231F20" d="M82.2,380.5l-2.9-7.1c-0.3-0.7-0.5-1.3-0.7-1.9c0.1,0.7,0.1,1.6,0.1,2.1v7h-1.2V370h1.6l2.7,6.9
		c0.4,1.1,0.6,1.6,0.8,2.1c-0.1-0.9-0.1-1.6-0.1-2.3V370h1.2v10.5L82.2,380.5L82.2,380.5z"/>
	<path fill="#231F20" d="M91.4,371.1H87v3.4h4.2v1.1H87v3.9h4.5v1.1h-5.8V370h5.6L91.4,371.1L91.4,371.1z"/>
	<path fill="#231F20" d="M94.4,380.5h-1.2V370h3c1.1,0,1.7,0.2,2.2,0.7c0.5,0.5,0.7,1.2,0.7,2.1c0,1.3-0.5,2.1-1.7,2.5
		c0.7,0.2,1,0.3,1.2,0.7c0.3,0.4,0.4,1,0.4,1.7v1.2c0,0.8,0.2,1.3,0.5,1.7H98c-0.2-0.6-0.3-1.2-0.3-1.7v-1c0-1.6-0.4-2-2-2h-1.4
		L94.4,380.5L94.4,380.5L94.4,380.5z M96,374.7c1.2,0,1.7-0.6,1.7-1.9c0-1.3-0.6-1.9-1.7-1.9h-1.6v3.8L96,374.7L96,374.7z"/>
</g>
</svg>
